<svg width="64" height="64" viewBox="0 0 64 64" fill="none" xmlns="http://www.w3.org/2000/svg">
<rect x="1" y="1" width="62" height="62" rx="7" stroke="white" stroke-width="2"/>
<path d="M31.5107 33.042C37.3131 33.042 42.0168 27.8839 42.0168 21.521C42.0168 15.1581 37.3131 10 31.5107 10C25.7083 10 21.0046 15.1581 21.0046 21.521C21.0046 27.8839 25.7083 33.042 31.5107 33.042Z" fill="white"/>
<path d="M50.1163 18.4829C47.8128 17.4874 45.216 17.7709 42.9028 19.0274C43.0478 19.8328 43.1283 20.6672 43.1283 21.521C43.1283 26.5437 40.4768 30.8834 36.6268 32.9582C37.2357 35.6774 38.8466 37.9133 41.2662 38.9604C45.8056 40.9224 51.4694 37.9294 53.9115 32.2752C56.3536 26.621 54.659 20.4449 50.1163 18.4829Z" fill="white"/>
<path d="M19.8995 21.521C19.8995 20.6672 19.9768 19.8328 20.125 19.0274C17.8086 17.7676 15.2151 17.4874 12.9115 18.4829C8.37205 20.4449 6.67418 26.621 9.11627 32.2752C11.5616 37.9294 17.2222 40.9224 21.7617 38.9603C24.178 37.9165 25.7888 35.6774 26.401 32.9582C22.551 30.8834 19.8995 26.5437 19.8995 21.521Z" fill="white"/>
<path d="M31.5107 35.4326C32.3805 35.4326 32.7672 35.1974 32.9282 35.0331C33.0023 34.9557 33.0217 34.843 32.9733 34.7463C32.7994 34.3952 32.271 33.4834 31.5107 33.4834C30.7503 33.4834 30.222 34.3952 30.048 34.7463C29.9997 34.843 30.019 34.9557 30.0931 35.0331C30.2542 35.1974 30.6408 35.4326 31.5107 35.4326Z" fill="white"/>
<path d="M31.5107 56.2836C33.7015 56.2836 34.6712 55.6876 35.0772 55.2785C35.2673 55.0851 35.3124 54.7984 35.1932 54.5568C34.755 53.6772 33.4244 51.3801 31.5107 51.3801C29.5938 51.3801 28.2664 53.6772 27.8282 54.5568C27.709 54.7984 27.7541 55.0884 27.9442 55.2785C28.3534 55.6908 29.3199 56.2836 31.5107 56.2836Z" fill="white"/>
<path d="M38.6501 40.3263C39.4298 40.7161 39.8776 40.6775 40.0967 40.6034C40.1998 40.5679 40.2674 40.4745 40.2674 40.3682C40.2674 39.9783 40.203 38.9248 39.5232 38.5865C38.8434 38.245 37.9639 38.8249 37.6514 39.0601C37.5644 39.1246 37.5322 39.2341 37.5644 39.3372C37.6353 39.5563 37.8737 39.9397 38.6533 40.3295L38.6501 40.3263Z" fill="white"/>
<path d="M24.3713 40.3263C23.5916 40.7161 23.1438 40.6775 22.9247 40.6034C22.8216 40.5679 22.754 40.4745 22.754 40.3682C22.754 39.9783 22.8184 38.9248 23.4982 38.5865C24.178 38.245 25.0575 38.8249 25.37 39.0601C25.457 39.1246 25.4892 39.2341 25.457 39.3372C25.3861 39.5563 25.1477 39.9397 24.368 40.3295L24.3713 40.3263Z" fill="white"/>
<path d="M31.5107 50.5327C31.2433 50.5327 31.0274 50.3169 31.0274 50.0495V36.8177C31.0274 36.5503 31.2433 36.3345 31.5107 36.3345C31.7781 36.3345 31.9939 36.5503 31.9939 36.8177V50.0495C31.9939 50.3169 31.7781 50.5327 31.5107 50.5327Z" fill="white"/>
<path d="M33.505 51.2159C33.4309 51.2159 33.3568 51.1998 33.2859 51.1644C33.0475 51.0419 32.9541 50.752 33.0733 50.5136L37.7674 41.2929C37.8898 41.0545 38.1797 40.9611 38.4182 41.0803C38.6566 41.2027 38.75 41.4927 38.6308 41.7311L33.9367 50.9517C33.8529 51.1193 33.6822 51.2159 33.505 51.2159Z" fill="white"/>
<path d="M29.5164 51.2159C29.3392 51.2159 29.1717 51.1192 29.0847 50.9517L24.3906 41.731C24.2682 41.4926 24.3648 41.2027 24.6032 41.0802C24.8416 40.9578 25.1316 41.0545 25.254 41.2929L29.9481 50.5135C30.0706 50.7519 29.9739 51.0419 29.7355 51.1643C29.6646 51.1998 29.5905 51.2159 29.5164 51.2159Z" fill="white"/>
</svg>
