<svg width="64" height="64" viewBox="0 0 64 64" fill="none" xmlns="http://www.w3.org/2000/svg">
<rect x="1" y="1" width="62" height="62" rx="7" stroke="white" stroke-width="2"/>
<path d="M36.4833 51.4207L37.1246 55.9998H47.3592V51.4207H36.4833Z" fill="white"/>
<path d="M18.868 45.3159V49.895H27.0877L27.729 45.3159H18.868Z" fill="white"/>
<path d="M28.5829 39.2104H21.735V43.7896H27.9425L28.5829 39.2104Z" fill="white"/>
<path d="M34.561 37.6843H38.7553V33.1052H33.9206L34.561 37.6843Z" fill="white"/>
<path d="M34.2705 44.7576L33.3154 37.9389L32.6398 33.1052H30.7195L29.937 38.6835L29.0358 45.1344L27.5137 56.0002H35.8438L35.0241 50.1492L34.2705 44.7576Z" fill="white"/>
<path d="M35.4168 43.7896H41.6223V39.2104H34.7745L35.4168 43.7896Z" fill="white"/>
<path d="M36.0303 27H27.471V31.5791H36.0303V27Z" fill="white"/>
<path d="M29.4377 33.1052H24.6039V37.6843H28.7963L29.4377 33.1052Z" fill="white"/>
<path d="M44.4894 45.3159H35.6294L36.2698 49.895H44.4894V45.3159Z" fill="white"/>
<path d="M16 55.9998H26.2319L26.8742 51.4207H16V55.9998Z" fill="white"/>
<path d="M56.1567 11.2957C57.1747 11.2957 58 10.558 58 9.64787C58 8.73778 57.1747 8 56.1567 8C55.1387 8 54.3134 8.73778 54.3134 9.64787C54.3134 10.558 55.1387 11.2957 56.1567 11.2957Z" fill="white"/>
<path d="M7.15747 11.8533V18.2783L14.6982 16.525C9.65863 14.7412 7.66639 12.5219 7.15747 11.8533Z" fill="white"/>
<path d="M15.7347 16.8718L18.4903 22.3647L25.218 18.6751C21.3142 18.3116 18.2017 17.6486 15.7378 16.8718H15.7347Z" fill="white"/>
<path d="M31.9985 18.9719C30.0186 18.9719 28.1909 18.9026 26.4996 18.7805L31.9985 23.6964L37.4973 18.7805C35.8061 18.9026 33.9783 18.9719 31.9985 18.9719Z" fill="white"/>
<path d="M38.782 18.6751L45.5097 22.3647L48.2653 16.8718C45.7983 17.6486 42.6889 18.3116 38.7851 18.6751H38.782Z" fill="white"/>
<path d="M49.2986 16.525L56.8394 18.2783V11.8533C56.3305 12.5219 54.3382 14.7384 49.2986 16.525Z" fill="white"/>
<path d="M53.0721 40.7272C53.0504 40.7272 53.0287 40.7272 53.0039 40.7272C52.5756 40.694 52.2591 40.3583 52.2963 39.9782L54.2234 19.8792C54.2607 19.4963 54.6361 19.2161 55.0613 19.2467C55.4895 19.2799 55.806 19.6156 55.7688 19.9957L53.8417 40.0947C53.8076 40.4554 53.4693 40.73 53.069 40.73L53.0721 40.7272Z" fill="white"/>
<path d="M7.84329 11.2957C8.86131 11.2957 9.68658 10.558 9.68658 9.64787C9.68658 8.73778 8.86131 8 7.84329 8C6.82527 8 6 8.73778 6 9.64787C6 10.558 6.82527 11.2957 7.84329 11.2957Z" fill="white"/>
<path d="M10.9278 40.7271C10.5306 40.7271 10.1893 40.4552 10.1551 40.0918L8.22807 19.9928C8.19084 19.6099 8.50736 19.2742 8.9356 19.2437C9.36384 19.2132 9.73932 19.4934 9.77346 19.8762L11.7005 39.9753C11.7378 40.3581 11.4212 40.6938 10.993 40.7243C10.9713 40.7243 10.9496 40.7243 10.9247 40.7243L10.9278 40.7271Z" fill="white"/>
</svg>
