<svg width="64" height="64" viewBox="0 0 64 64" fill="none" xmlns="http://www.w3.org/2000/svg">
<rect x="1" y="1" width="62" height="62" rx="7" stroke="#25598B" stroke-width="2"/>
<path d="M29.2061 22.597C27.6836 23.2053 26.3228 24.084 25.144 25.2129C23.9725 26.3484 23.0533 27.6597 22.429 29.1264C21.973 30.1809 22.4922 31.384 23.5865 31.8233C23.8532 31.9314 24.1339 31.9788 24.4074 31.9788C25.2494 31.9788 26.042 31.4989 26.3858 30.7013C26.7999 29.7483 27.4032 28.8831 28.1749 28.1328C28.9537 27.3893 29.8446 26.808 30.8409 26.4092C31.9354 25.9766 32.4546 24.7668 32.0055 23.7123C31.5494 22.6578 30.2936 22.1644 29.2061 22.597Z" fill="#25598B"/>
<path d="M27.0663 52.3778H37.1901L37.6882 49.8701H26.5612L27.0663 52.3778Z" fill="#25598B"/>
<path d="M31.9993 55.8724C33.8259 55.8724 35.3066 54.8127 35.3066 53.5054H28.6922C28.6922 54.8127 30.1728 55.8724 31.9993 55.8724Z" fill="#25598B"/>
<path d="M18.814 20.4824L13.3611 13.6462C12.5444 14.5023 11.7554 15.3841 11 16.2837L17.3488 22.1155C17.9267 21.4324 18.2061 21.1231 18.814 20.4824Z" fill="#25598B"/>
<path d="M31.8811 17.386C32.2842 17.386 32.6858 17.3941 33.0854 17.4103L33.4651 8.03617C32.9356 8.01214 32.4002 8 31.8718 8C31.4196 8 30.9701 8.0091 30.5349 8.0263L30.9798 17.3994C31.2807 17.3903 31.5815 17.386 31.8811 17.386Z" fill="#25598B"/>
<path d="M45.1861 20.4491C45.7924 21.0977 46.0876 21.436 46.6512 22.1155L53 16.308C52.2471 15.3944 51.4627 14.5035 50.6567 13.6462L45.1861 20.4491Z" fill="#25598B"/>
<path d="M40.8803 23.8947C38.6212 21.7182 35.4992 20.373 32.0546 20.373C28.6099 20.373 25.4879 21.7182 23.2358 23.8947C20.9767 26.0711 19.5806 29.079 19.5806 32.3977C19.5806 35.8854 21.3906 39.9815 23.6568 42.1039C25.5299 43.8614 26.5052 45.1185 27.0102 45.9972H25.6702L26.2314 48.7887H38.0249L38.5793 45.9972H37.0988C37.6039 45.1185 38.5793 43.8613 40.4524 42.1039C42.7184 39.9815 44.5285 35.8855 44.5285 32.3977C44.5285 29.079 43.1323 26.0711 40.8803 23.8947ZM30.8976 44.3597C30.8576 44.3752 30.8164 44.3852 30.7751 44.3901C30.6087 44.4099 30.4431 44.3464 30.3716 44.2236L27.0889 38.5956C26.9995 38.4425 27.0903 38.2552 27.2915 38.1772C27.4926 38.0992 27.7282 38.1602 27.8176 38.3133L31.1003 43.9413C31.1897 44.0944 31.0989 44.2818 30.8976 44.3597ZM30.8408 26.409C29.8445 26.8078 28.9536 27.3891 28.1748 28.1326C27.4031 28.8829 26.7998 29.7481 26.3857 30.7012C26.0418 31.4987 25.2493 31.9786 24.4073 31.9786C24.1338 31.9786 23.8532 31.9313 23.5864 31.8231C22.4921 31.3838 21.9729 30.1807 22.4289 29.1263C23.0532 27.6595 23.9724 26.3482 25.1439 25.2127C26.3227 24.0839 27.6836 23.2052 29.206 22.5968C30.2935 22.1643 31.5494 22.6576 32.0053 23.7121C32.4545 24.7666 31.9353 25.9765 30.8408 26.409ZM37.014 38.3683L33.3834 44.1547C33.3043 44.2808 33.1345 44.352 32.969 44.3398C32.928 44.3369 32.8873 44.3288 32.8482 44.3151C32.6516 44.2462 32.5721 44.0628 32.671 43.9054L36.3013 38.1192C36.4002 37.9617 36.6397 37.8898 36.8365 37.9587C37.0332 38.0274 37.1127 38.2109 37.014 38.3683Z" fill="#25598B"/>
</svg>
