<svg width="64" height="64" viewBox="0 0 64 64" fill="none" xmlns="http://www.w3.org/2000/svg">
<rect x="1" y="1" width="62" height="62" rx="7" stroke="#25598B" stroke-width="2"/>
<path d="M6 13.1081C6 13.1081 14.0247 12.0507 22.4265 16.5496C30.8282 21.0485 33.3158 24.4861 36.6425 19.6165C39.9692 14.7469 42.7674 18.9766 46.9294 18.4186C51.0915 17.8606 46.0053 20.4398 45.6505 20.9587C45.2956 21.4777 43.8689 25.6644 42.1279 27.0769C42.1279 27.0769 45.924 34.67 51.1802 38.9075C56.4327 43.1449 57.8927 51.3077 56.5066 54C56.5066 54 51.7642 47.8389 46.1458 49.0719C40.5274 50.3049 32.2513 38.5992 31.501 36.9799C31.501 36.9799 29.7304 38.291 30.2405 44.6823L32.5729 47.5736C32.5729 47.5736 30.758 47.3161 28.8581 48.8417C26.9582 50.3673 24.4595 51.2921 21.044 49.8445C17.6286 48.3969 18.3346 43.0435 16.7859 46.8361C16.7859 46.8361 16.0207 42.0563 20.4415 37.8305C24.8624 33.6048 24.9178 33.7648 23.6056 33.1717C22.2934 32.5786 17.0446 29.9955 13.9434 23.9047C10.8422 17.8177 7.2087 13.7441 6.00739 13.1081H6Z" fill="#25598B"/>
</svg>
