<svg width="64" height="64" viewBox="0 0 64 64" fill="none" xmlns="http://www.w3.org/2000/svg">
<path d="M39.0929 16C39.0929 16 36.9703 18.1254 32 18.1254C27.0297 18.1254 24.907 16 24.907 16L5 33.751C5 33.751 8.76596 38.6999 10.0194 39.105L12.6359 38.3446L11.9052 40.6165C11.9052 40.6165 16.8091 44.325 19.004 45.1851L20.8003 43.6923L21.1469 46.226C21.1469 46.226 26.2269 48.4823 30.2412 47.9057L32 45.9923L33.7588 47.9057C37.776 48.4823 42.8531 46.226 42.8531 46.226L43.1997 43.6923L44.996 45.1851C47.1909 44.325 52.0948 40.6165 52.0948 40.6165L51.3641 38.3446L53.9806 39.105C55.234 38.6999 59 33.751 59 33.751L39.0929 16ZM34.0043 35.2189C33.6288 35.3248 33.1552 35.5336 32.7769 35.9419C32.4014 36.3501 32.2079 36.8612 32.1069 37.2663C32.078 37.3816 31.9249 37.3816 31.8989 37.2663C31.8007 36.8612 31.6072 36.3501 31.2289 35.9419C30.8506 35.5367 30.3769 35.3279 30.0015 35.2189C29.8946 35.1877 29.8946 35.0225 30.0015 34.9945C30.3769 34.8885 30.8506 34.6797 31.2289 34.2715C31.6043 33.8632 31.7978 33.3521 31.8989 32.947C31.9278 32.8317 32.0809 32.8317 32.1069 32.947C32.205 33.3521 32.3985 33.8632 32.7769 34.2715C33.1552 34.6766 33.6288 34.8854 34.0043 34.9945C34.1111 35.0256 34.1111 35.1908 34.0043 35.2189ZM35.7053 25.6733C35.0093 25.8728 34.1342 26.2592 33.4325 27.0102C32.7364 27.7675 32.3783 28.7118 32.1935 29.4629C32.1415 29.6779 31.8585 29.6779 31.8065 29.4629C31.6217 28.7118 31.2636 27.7675 30.5675 27.0102C29.8658 26.2592 28.9907 25.8728 28.2947 25.6733C28.0954 25.6172 28.0954 25.3118 28.2947 25.2557C28.9907 25.0563 29.8658 24.6698 30.5675 23.9188C31.2636 23.1615 31.6217 22.2172 31.8065 21.4662C31.8585 21.2511 32.1415 21.2511 32.1935 21.4662C32.3783 22.2172 32.7364 23.1615 33.4325 23.9188C34.1342 24.6698 35.0093 25.0563 35.7053 25.2557C35.9046 25.3118 35.9046 25.6172 35.7053 25.6733Z" fill="#25598B"/>
<rect x="1" y="1" width="62" height="62" rx="7" stroke="#25598B" stroke-width="2"/>
</svg>
