<svg width="64" height="64" viewBox="0 0 64 64" fill="none" xmlns="http://www.w3.org/2000/svg">
<rect x="1" y="1" width="62" height="62" rx="7" stroke="white" stroke-width="2"/>
<path d="M53.7336 8.254C53.7336 8.254 52.7965 9.26241 51.4451 10.6986C51.8933 11.6188 52.3754 12.9599 52.5927 14.7255C54.0154 14.189 55 12.4099 55 9.82263C55 7.06224 53.7336 8.25739 53.7336 8.25739V8.254Z" fill="white"/>
<path d="M32.5705 14.868C32.9576 14.9936 33.1409 15.2313 33.2292 15.4113C33.562 16.0903 33.5246 17.6114 33.3277 19.3261C34.2852 17.5537 35.3717 16.2839 35.5516 15.1091C35.7961 13.5235 35.9794 11.269 30.1904 15.0853C31.1988 14.8103 32.051 14.6982 32.5739 14.868H32.5705Z" fill="white"/>
<path d="M44.2878 50.2645C43.3031 49.3308 42.2506 48.6347 41.1742 48.0779C42.5663 49.762 43.6596 51.463 43.517 52.5393C43.3269 53.9891 41.4764 55.2013 39.059 56.0908C39.4223 56.084 39.8059 56.0671 40.2134 56.0433C45.9956 55.714 49.2823 54.9907 44.2878 50.2611V50.2645Z" fill="white"/>
<path d="M50.6846 11.5C48.06 14.2774 44.4202 18.0631 42.6444 19.642C39.6871 22.2699 29.7015 29.2371 28.1872 29.6955C28.1872 29.6955 30.2821 26.7993 31.535 23.9065C32.1869 20.6198 32.7539 16.7695 32.3091 15.8562C31.939 15.5099 29.8373 16.1278 27.0803 17.3026C21.3218 21.7538 20.6088 24.4667 16.6227 27.7873C15.8995 28.3917 15.285 28.9214 14.7485 29.3967C14.3988 30.8363 13.791 32.2929 12.7317 33.2945C12.0051 33.9838 11.4313 34.4795 11.0068 34.8394C11.7097 34.8462 12.3446 34.9447 12.5959 35.4811C12.8471 36.0176 12.5653 36.6831 11.6587 37.6949C10.2089 39.3212 10.6469 39.9799 11.8183 41.7421C11.9134 41.8847 12.0119 42.0307 12.1103 42.1869C13.1459 43.7691 15.964 47.307 18.8059 49.9248C20.2964 50.6412 22.045 51.3441 24.1128 52.0299C30.8389 54.2572 33.2122 55.4999 36.0575 55.9244C39.5717 55.0687 42.3355 53.6631 42.5018 52.4C42.5833 51.7956 41.6123 49.952 38.9605 47.0931C35.2596 45.6773 31.5655 45.0559 29.3687 41.3211C26.0821 35.7358 27.0022 32.7445 28.3162 32.1707C29.6302 31.5969 43.0621 22.9049 48.4878 16.155C49.2585 15.1941 50.3247 15.1771 51.5877 14.9564C51.4179 13.4896 51.0445 12.3352 50.6812 11.4966L50.6846 11.5Z" fill="white"/>
<path d="M11.2615 42.7506C11.163 42.5978 11.0646 42.4552 10.9729 42.3126C9.78453 40.5266 8.92551 39.233 10.9016 37.0227C11.4924 36.3606 11.6248 36.0448 11.6553 35.9294C11.4347 35.8411 10.7997 35.8615 10.4432 35.8717H10.3617C9.83546 35.8886 9.45179 35.9022 9.299 35.4982C9.14281 35.0839 9.41104 34.8599 10.0629 34.3098C10.4941 33.9465 11.1494 33.3965 12.0356 32.5544C12.5381 32.0791 12.9218 31.4679 13.2206 30.7957C11.747 32.1775 11.0883 32.8668 9.85923 33.5051C7.95445 34.4898 7.03432 38.6321 9.46537 41.9832C10.9321 44.0035 12.494 46.095 15.5939 48.1288C13.5499 45.8912 11.8693 43.6707 11.2649 42.7506H11.2615Z" fill="white"/>
</svg>
