<svg width="64" height="64" viewBox="0 0 64 64" fill="none" xmlns="http://www.w3.org/2000/svg">
<rect x="1" y="1" width="62" height="62" rx="7" stroke="#25598B" stroke-width="2"/>
<path d="M54.6451 31.1394C54.1251 30.4517 53.2256 30.3852 52.6353 30.991L36.6188 47.5091C35.8733 48.2752 34.9211 48.6847 33.9455 48.6847C33.6614 48.6847 33.3757 48.6505 33.0915 48.5789L11.6186 43.0455C11.3623 42.9466 11.1323 42.8083 10.9272 42.6343C10.6049 42.3613 10.3457 42.0012 10.167 41.5917C9.98834 41.184 9.89159 40.7284 9.89159 40.2626C9.89159 39.9725 9.92965 39.679 10.0088 39.3821C10.0952 39.0648 10.2197 38.7815 10.3765 38.5307C10.6108 38.1552 10.9199 37.8533 11.27 37.6452C11.6215 37.437 12.0127 37.3243 12.4126 37.3243C12.4785 37.3243 12.5459 37.3295 12.6118 37.3346L32.2024 42.2691C33.8987 42.6956 35.6682 42.1599 36.9704 40.8222L53.9756 23.3673C54.7475 22.5739 55.0728 21.3402 54.812 20.1783C54.5527 19.0164 53.753 18.124 52.7452 17.8698L51.6715 17.5985L43.1315 26.3635C42.9924 26.5069 42.8078 26.5768 42.6217 26.5512C42.4371 26.5273 42.2716 26.4147 42.1618 26.2407L40.7599 23.9884L36.9602 24.6044C36.6716 24.6523 36.3904 24.4731 36.2703 24.1659C36.1472 23.8571 36.2146 23.4936 36.4328 23.2684L43.8698 15.6347L33.9837 13.1436C32.2874 12.7171 30.5165 13.2528 29.2142 14.5905L8.58501 35.707C8.44148 35.8929 8.31839 36.0892 8.21002 36.2905C8.15292 36.3742 8.09433 36.4595 8.04005 36.5481C7.70021 37.089 7.43068 37.7033 7.2505 38.3739C7.08203 38.9984 7 39.6365 7 40.2627C7 41.6073 7.37059 42.8954 8.02833 43.9567C8.35645 44.4873 8.75929 44.9616 9.22513 45.3559C9.68947 45.7517 10.2168 46.0657 10.791 46.2755L10.8511 46.2977L32.491 51.8192C32.9744 51.942 33.4621 52 33.9456 52C35.6067 52 37.2297 51.3005 38.4997 49.9968L54.5177 33.4786C55.1079 32.8729 55.1636 31.8253 54.6451 31.1394Z" fill="#25598B"/>
</svg>
