<svg width="64" height="64" viewBox="0 0 64 64" fill="none" xmlns="http://www.w3.org/2000/svg">
<rect x="1" y="1" width="62" height="62" rx="7" stroke="white" stroke-width="2"/>
<path d="M19.0505 39.2486L16.6445 25.0995L11.3174 26.0054C9.10267 26.3819 7.61243 28.4827 7.98903 30.6975L9.03089 36.8247C9.40748 39.0394 11.5086 40.5311 13.7233 40.1546L19.0505 39.2486Z" fill="white"/>
<path d="M36.2983 15.1131L27.74 21.7493C26.1521 22.9796 24.2857 23.8 22.3065 24.1365L19.0977 24.6822L21.5037 38.8313L24.7125 38.2856C26.6916 37.9491 28.7241 38.105 30.6296 38.7428L40.9003 42.1773L41.1094 43.4069L43.5611 42.99L38.541 13.4667L36.0893 13.8836L36.2983 15.1131Z" fill="white"/>
<path d="M43.3995 24.9171L41.4188 25.2539L42.3813 30.9144L44.362 30.5776L43.3995 24.9171Z" fill="white"/>
<path d="M12.7465 50.7966L13.0137 52.3684C13.1825 53.361 14.1234 54.0272 15.116 53.8584L18.1115 53.349C19.1025 53.1805 19.7705 52.2408 19.6017 51.2482L19.4342 50.263L21.0643 41.2487L13.8911 42.4684L12.7465 50.7966Z" fill="white"/>
<path d="M56.926 24.7571L48.4967 26.1904L48.7543 27.7059L57.1837 26.2726L56.926 24.7571Z" fill="white"/>
<path d="M53.2319 17.1882L52.2381 16.0142L46.2618 21.0729L47.2555 22.2469L53.2319 17.1882Z" fill="white"/>
<path d="M48.2759 32.9058L55.5881 35.7048L56.1383 34.2699L48.8258 31.4693L48.2759 32.9058Z" fill="white"/>
</svg>
