<?xml version="1.0" encoding="UTF-8"?><svg id="_レイヤー_2" xmlns="http://www.w3.org/2000/svg" viewBox="0 0 171.27353 72.05527"><defs><style>.cls-1{fill:#5ebab8;}</style></defs><g id="_レイヤー_1-2"><path class="cls-1" d="M29.43782,10.53126c.53246-.22056,1.00403-.41591,1.5364-.63646l.90003-.90003c1.36888-1.36888.39937-3.70935-1.53649-3.70935H3.59858c-.9602,0-1.73871.77841-1.73871,1.73871v1.76852c0,.9602.77841,1.73861,1.73861,1.73861h10.05527c.73387,0,1.32876.5949,1.32876,1.32876v3.31224c0,.73387,1.80313,2.63873,2.53699,2.63873h1.78289c.73387,0,1.32876-.5949,1.32876-1.32876v-4.62221c0-.73387.5949-1.32876,1.32876-1.32876h7.47789Z"/><path class="cls-1" d="M33.15566,25.52963l-3.45889-3.426c-.12568-.12451-.29618-.19444-.47391-.19444h-6.93033c-.59707,0-.89605.71489-.47391,1.13305l3.45898,3.426c.12568.12442.29609.19435.47382.19435h6.93043c.59698,0,.89596-.71489.47382-1.13296Z"/><path class="cls-1" d="M14.73775,22.53318c-.21631-.21622-.5096-.33775-.81546-.33775H5.50869l-3.63761.04274c-.30115.00361-.58903.12478-.8019.33775l-.73143.73143c-.21631.21622-.33775.5096-.33775.81546v1.66389c0,.63691.51629,1.1532,1.1532,1.1532h15.20705c1.02743,0,1.542-1.2422.81546-1.96866l-2.43796-2.43805Z"/><path class="cls-1" d="M70.98563,3.45992l-1.91842-1.91851c-.18315-.18306-.43145-.28597-.6904-.28597h-23.91196c-.25896,0-.50734.10291-.6904.28597l-3.13478,3.13478c-.61505.61505-.17945,1.66669.6904,1.66669h11.64028v22.91869c0,1.27735,1.54435,1.91698,2.44763,1.01379l2.53699-2.53699c.2689-.2689.41997-.63357.41997-1.01379V6.34289h11.92038c.53924,0,.97629-.43714.97629-.97638v-1.21618c0-.25896-.10282-.50734-.28597-.6904Z"/><path class="cls-1" d="M69.53768,7.6299h-3.5037c-.22354,0-.43795.08882-.59598.24685l-2.07103,2.07103c-.53093.53093-.15487,1.43882.59598,1.43882h3.9928c.22354,0,.43786-.08882.59598-.24685l2.71987-2.71996-1.34711-.69592c-.11963-.06171-.25227-.09397-.38681-.09397Z"/><path class="cls-1" d="M83.63106.12803c-.2736-.27351-.74136-.07978-.74136.30712v27.2495c0,.1152.04572.22562.12722.30703l4.37726,4.37726c.2736.2736.74136.07987.74136-.30703V4.8124c0-.1152-.04572-.22571-.12722-.30712L83.63106.12803Z"/><path class="cls-1" d="M94.91137,20.83383c-.3963-.39639-1.0389-.39639-1.43529,0l-3.66652,3.66652c-.18848.18839-.29519.44346-.29718.71001l-.01654,2.20512c-.00208.27179.10499.5331.29718.72528l3.68306,3.68306c.39639.39639,1.03899.39639,1.43529,0l4.77735-4.77735c.39639-.39639.39639-1.03899,0-1.43538l-4.77735-4.77726ZM95.76279,27.04647l-.85142.85133c-.3963.39639-1.0389.39639-1.43529,0l-1.01261-1.01261.0084-1.12113,1.00421-1.00421c.39639-.39639,1.03899-.39639,1.43529,0l.85133.85124c.39639.39639.39639,1.03899.00009,1.43538Z"/><path class="cls-1" d="M102.39585,16.07961l-2.05441-2.05441c-.72275-.72275-1.95809-.20484-1.94932.81717l.06253,7.3616c.00253.29953.12261.58595.3344.79775l1.99197,1.99197c.71932.71932,1.94932.2099,1.94932-.8075v-7.29907c0-.30287-.12026-.59327-.33449-.8075Z"/><path class="cls-1" d="M66.58206,43.73978l-.68015.09936c-.23986.03495-.46138.14864-.62973.32306l-13.87078,14.36632c-.28444.28444-.44419.6703-.44419,1.07266v9.84189c0,1.44271,1.1695,2.6122,2.6122,2.6122h.98064c1.44271,0,2.6122-1.1695,2.6122-2.6122v-6.9967c0-.69287.27527-1.35721.76519-1.84713l9.14305-9.14317c.48992-.48992.76507-1.15426.76507-1.84713v-4.78526c0-.66789-.5926-1.18038-1.2535-1.08389Z"/><path class="cls-1" d="M47.53925,57.54651h-3.14899c-.18691,0-.36615.07426-.4984.2064l-3.64223,3.64235c-.44396.44396-.1295,1.20308.49828,1.20308h4.71718c.18691,0,.36615-.07426.49828-.2064l3.67936-3.67936-1.73562-1.06235c-.1107-.06784-.23803-.10371-.36787-.10371Z"/><path class="cls-1" d="M91.70822,51.0518c-.15732-.15732-.37062-.24556-.59307-.24556h-12.74669c-.46319,0-.83863.37544-.83863.83863v2.42852c0,.46319.37544.83863.83863.83863h11.27543c.22245,0,.43575.08836.59307.24568l1.17008,1.17008c.15732.15732.24568.37062.24568.59307v10.64109c0,.22245.08836.43575.24568.59307l3.40161,3.40161h1.30281v-15.26283c0-.22245-.08836-.43575-.24568-.59307l-4.64893-4.64893Z"/><path class="cls-1" d="M94.93781,41.65346c-.5555-.49285-1.50536-.14385-1.50536.55316v5.75141c0,.09887.02113.19699.06229.28894l.90463,2.01922c.04437.09899.11098.18883.19588.26422l2.16603,1.92159c.5555.49285,1.50536.14385,1.50536-.55316v-6.96808c0-.2075-.09293-.40646-.25829-.55316l-3.07053-2.72413Z"/><path class="cls-1" d="M105.0004,44.10027l-3.01752-3.01752-.79414.83801c-.23839.25161-.37124.58504-.37124.93169v6.73674c0,.35925.14274.7038.3967.95777l2.07903,2.07903c.25396.25396.59851.3967.95777.3967h1.14611v-7.96466c0-.35925-.14274-.70368-.3967-.95777Z"/><path class="cls-1" d="M5.63307,48.41682h20.9306c.18163,0,.35621-.07004.4875-.19551l2.83344-2.70817c.45994-.43962.14875-1.21544-.4874-1.21544H5.63307c-.38959,0-.70548.31588-.70548.70548v2.70817c0,.38959.31588.70548.70548.70548Z"/><path class="cls-1" d="M29.39721,50.99992H5.63307c-.38959,0-.70548.31588-.70548.70548v2.70817c0,.3897.31588.70548.70548.70548h20.9306c.18163,0,.35621-.07004.4875-.19541l2.83344-2.70827c.45994-.43952.14875-1.21544-.4874-1.21544Z"/><path class="cls-1" d="M26.92671,57.04701c-.19817-.14712-.4384-.22645-.68516-.22645h-1.70141c-.61359,0-1.11906.48179-1.14836,1.09456l-.11914,2.48632c-.01603.33416-.17673.64473-.44023.85076l-9.30412,7.27406.84923.86342h5.48444c.27943,0,.54937-.10179.75918-.28627l7.11714-6.25801c.24819-.21828.39041-.53283.39041-.86342v-3.46439c0-.36387-.17223-.70629-.46443-.92314l-.73753-.54743Z"/><path class="cls-1" d="M115.05005,48.94081h20.9306c.18163,0,.35621-.07004.4875-.19551l2.83344-2.70817c.45994-.43962.14875-1.21544-.4874-1.21544h-23.76414c-.38959,0-.70548.31588-.70548.70548v2.70817c0,.38959.31588.70548.70548.70548Z"/><path class="cls-1" d="M138.81419,51.52392h-23.76414c-.38959,0-.70548.31588-.70548.70548v2.70817c0,.3897.31588.70548.70548.70548h20.9306c.18163,0,.35621-.07004.4875-.19541l2.83344-2.70827c.45994-.43952.14875-1.21544-.4874-1.21544Z"/><path class="cls-1" d="M136.34369,57.571c-.19817-.14712-.4384-.22645-.68516-.22645h-1.70141c-.61359,0-1.11906.48179-1.14836,1.09456l-.11914,2.48632c-.01603.33416-.17673.64473-.44023.85076l-9.30412,7.27406.84923.86342h5.48444c.27943,0,.54937-.10179.75918-.28627l7.11714-6.25801c.24819-.21828.39041-.53283.39041-.86342v-3.46439c0-.36387-.17223-.70629-.46443-.92314l-.73753-.54743Z"/><path class="cls-1" d="M157.65737,49.01457l-3.84077-3.84077c-.19734-.19743-.4645-.30926-.74378-.31132l-2.30989-.01729c-.28473-.00216-.55837.10995-.75975.31132l-3.85806,3.85806c-.41526.41526-.41526,1.08837,0,1.50353l5.00441,5.00441c.41516.41526,1.08837.41526,1.50353,0l5.00432-5.00441c.41526-.41516.41526-1.08827,0-1.50353ZM153.54483,50.51811l-.89178.89178c-.41516.41526-1.08837.41526-1.50353.00009l-.89178-.89188c-.41526-.41516-.41526-1.08827,0-1.50353l1.06074-1.06074,1.17435.00883,1.052,1.05191c.41516.41526.41516,1.08837,0,1.50353Z"/><path class="cls-1" d="M170.86852,46.48084l-1.12483-1.12483c-.25936-.25936-.61109-.40501-.97777-.40501h-1.84286c-.36677,0-.7185.14565-.97777.40501l-8.70413,8.70404c-.47643.47643-.54005,1.22688-.15073,1.7768.25917.36611.67997.58375,1.12849.58375h2.93264c.36677,0,.7185-.14565.97777-.40501l1.25658-1.25648c.87101-.87111,2.36045-.25419,2.36045.97777v16.24932h1.27922c.36667,0,.71841-.14575.97777-.40501l2.86517-2.86517c.25927-.25936.40501-.61109.40501-.97777v-20.27963c0-.36677-.14575-.71841-.40501-.97777Z"/></g></svg>