<svg width="639" height="44" viewBox="0 0 639 44" fill="none" xmlns="http://www.w3.org/2000/svg">
<path d="M40.1818 12.267C40.8911 11.9723 41.5205 11.7123 42.2298 11.419L43.4298 10.219C45.2551 8.39363 43.9631 5.2723 41.3818 5.2723H10.4058H5.7298C4.4498 5.2723 3.41113 6.31097 3.41113 7.59097V9.9483C3.41113 11.2296 4.44846 12.267 5.7298 12.267H10.4058H19.1365C20.1151 12.267 20.9085 13.0603 20.9085 14.039V18.455C20.9085 19.4336 23.3125 21.9736 24.2911 21.9736H26.6685C27.6458 21.9736 28.4391 21.1803 28.4391 20.2016V14.039C28.4391 13.0603 29.2325 12.267 30.2111 12.267H40.1818Z" fill="#64C1B5"/>
<path d="M45.1389 32.2647L40.5269 27.6967C40.3589 27.5301 40.1322 27.4381 39.8949 27.4381H34.8962H30.6549C29.8589 27.4381 29.4602 28.3901 30.0229 28.9487L34.6349 33.5167C34.8029 33.6821 35.0295 33.7754 35.2669 33.7754H40.2655H44.5069C45.3029 33.7754 45.7015 32.8221 45.1389 32.2647Z" fill="#64C1B5"/>
<path d="M20.5816 28.2695C20.2936 27.9815 19.9016 27.8188 19.4949 27.8188H8.27624L3.42558 27.8762C3.02424 27.8815 2.64024 28.0428 2.35624 28.3268L1.38158 29.3015C1.09358 29.5895 0.930908 29.9815 0.930908 30.3895V32.6082C0.930908 33.4562 1.62024 34.1455 2.46824 34.1455H22.7456C24.1149 34.1455 24.8016 32.4895 23.8322 31.5202L20.5816 28.2695Z" fill="#64C1B5"/>
<path d="M128.844 3.02017L126.286 0.461503C126.041 0.217503 125.71 0.0815037 125.365 0.0815037H93.4823C93.137 0.0815037 92.8063 0.217503 92.5623 0.461503L88.3823 4.6415C87.5623 5.4615 88.1436 6.86417 89.3023 6.86417H104.824V34.8308V37.4228C104.824 39.1255 106.882 39.9788 108.086 38.7735L111.469 35.3908C111.828 35.0335 112.029 34.5468 112.029 34.0402V6.86417H127.924C128.642 6.86417 129.225 6.2815 129.225 5.56284V3.94017C129.225 3.59484 129.088 3.26417 128.844 3.02017Z" fill="#64C1B5"/>
<path d="M126.913 8.57953H122.241C121.944 8.57953 121.657 8.6982 121.446 8.90887L118.685 11.6702C117.977 12.3782 118.478 13.5889 119.48 13.5889H124.804C125.102 13.5889 125.388 13.4702 125.598 13.2595L129.225 9.63287L127.429 8.70487C127.269 8.6222 127.093 8.57953 126.913 8.57953Z" fill="#64C1B5"/>
<path d="M181.818 0.479608C181.453 0.115608 180.83 0.37294 180.83 0.88894V6.48494V37.2223C180.83 37.3756 180.89 37.5223 180.999 37.6316L186.835 43.4676C187.201 43.8329 187.823 43.5743 187.823 43.0583V37.4623V6.72494C187.823 6.57161 187.763 6.42494 187.654 6.31561L181.818 0.479608Z" fill="#64C1B5"/>
<path d="M197.994 36.3714L196.859 37.506C196.33 38.0354 195.474 38.0354 194.944 37.506L193.595 36.1567L193.606 34.662L194.944 33.322C195.474 32.794 196.33 32.794 196.859 33.322L197.994 34.458C198.522 34.986 198.522 35.8434 197.994 36.3714ZM196.859 28.0874C196.33 27.5594 195.474 27.5594 194.944 28.0874L190.056 32.9767C189.804 33.2274 189.663 33.5674 189.66 33.9234L189.638 36.8634C189.635 37.226 189.778 37.574 190.034 37.83L194.944 42.7407C195.474 43.27 196.33 43.27 196.859 42.7407L203.228 36.3714C203.756 35.8434 203.756 34.986 203.228 34.458L196.859 28.0874Z" fill="#64C1B5"/>
<path d="M206.838 21.7488L204.099 19.0102C203.135 18.0462 201.488 18.7368 201.499 20.0995L201.583 29.9142C201.586 30.3142 201.746 30.6955 202.028 30.9782L204.684 33.6342C205.643 34.5928 207.283 33.9142 207.283 32.5582V22.8262C207.283 22.4222 207.123 22.0342 206.838 21.7488Z" fill="#64C1B5"/>
<path d="M381.805 0.379481L380.898 0.511482C380.578 0.558149 380.282 0.710149 380.058 0.942149L361.563 20.0981C361.185 20.4768 360.971 20.9915 360.971 21.5275V34.6501C360.971 36.5741 362.531 38.1328 364.454 38.1328H365.762C367.686 38.1328 369.245 36.5741 369.245 34.6501V25.3221C369.245 24.3981 369.611 23.5115 370.265 22.8581L382.455 10.6675C383.109 10.0141 383.477 9.12881 383.477 8.20481V1.82481C383.477 0.934147 382.686 0.251481 381.805 0.379481Z" fill="#64C1B5"/>
<path d="M356.414 18.7884H352.215C351.966 18.7884 351.727 18.8871 351.551 19.0631L346.694 23.9204C346.102 24.5124 346.522 25.5244 347.359 25.5244H353.649C353.898 25.5244 354.137 25.4257 354.313 25.2484L359.218 20.3431L356.905 18.9271C356.757 18.8364 356.587 18.7884 356.414 18.7884Z" fill="#64C1B5"/>
<path d="M450.718 13.6561C450.509 13.4468 450.223 13.3281 449.927 13.3281H432.931C432.314 13.3281 431.814 13.8294 431.814 14.4468V17.6854C431.814 18.3028 432.314 18.8028 432.931 18.8028H447.966C448.262 18.8028 448.546 18.9214 448.757 19.1308L450.317 20.6908C450.526 20.9001 450.643 21.1854 450.643 21.4814V35.6694C450.643 35.9668 450.762 36.2508 450.971 36.4601L455.507 40.9961H457.245V20.6454C457.245 20.3494 457.126 20.0641 456.917 19.8548L450.718 13.6561Z" fill="#64C1B5"/>
<path d="M455.024 1.12554C454.283 0.468204 453.017 0.933537 453.017 1.86287V9.5322C453.017 9.66287 453.045 9.79487 453.1 9.91754L454.307 12.6095C454.365 12.7415 454.455 12.8615 454.567 12.9615L457.455 15.5242C458.196 16.1802 459.463 15.7149 459.463 14.7855V5.49487C459.463 5.21887 459.339 4.95354 459.119 4.75754L455.024 1.12554Z" fill="#64C1B5"/>
<path d="M468.441 4.3872L464.417 0.363205L463.358 1.48054C463.041 1.81654 462.863 2.26187 462.863 2.7232V11.7059C462.863 12.1845 463.054 12.6445 463.393 12.9832L466.165 15.7552C466.503 16.0939 466.962 16.2832 467.442 16.2832H468.97V5.66454C468.97 5.18587 468.779 4.72587 468.441 4.3872Z" fill="#64C1B5"/>
<path d="M263.658 9.49219H291.566C291.807 9.49219 292.041 9.39885 292.215 9.23085L295.994 5.62019C296.606 5.03485 296.191 4.00019 295.343 4.00019H263.658C263.138 4.00019 262.718 4.42152 262.718 4.94019V8.55219C262.718 9.07085 263.138 9.49219 263.658 9.49219Z" fill="#64C1B5"/>
<path d="M295.343 12.9367H263.658C263.138 12.9367 262.717 13.358 262.717 13.8767V17.4887C262.717 18.0074 263.138 18.4287 263.658 18.4287H291.565C291.807 18.4287 292.041 18.3354 292.215 18.1687L295.993 14.5567C296.606 13.9714 296.191 12.9367 295.343 12.9367Z" fill="#64C1B5"/>
<path d="M292.05 20.9997C291.786 20.8037 291.466 20.6984 291.136 20.6984H288.867C288.05 20.6984 287.375 21.3397 287.336 22.157L287.178 25.4717C287.156 25.9184 286.942 26.3317 286.591 26.6064L274.186 36.305L275.318 37.457H282.63C283.003 37.457 283.363 37.321 283.642 37.0744L293.132 28.7304C293.463 28.4397 293.652 28.021 293.652 27.5797V22.961C293.652 22.4757 293.423 22.0184 293.034 21.729L292.05 20.9997Z" fill="#64C1B5"/>
<path d="M519.993 9.49219H547.901C548.142 9.49219 548.376 9.39885 548.55 9.23085L552.329 5.62019C552.941 5.03485 552.526 4.00019 551.678 4.00019H519.993C519.473 4.00019 519.053 4.42152 519.053 4.94019V8.55219C519.053 9.07085 519.473 9.49219 519.993 9.49219Z" fill="#64C1B5"/>
<path d="M551.678 12.9367H519.993C519.473 12.9367 519.052 13.358 519.052 13.8767V17.4887C519.052 18.0074 519.473 18.4287 519.993 18.4287H547.9C548.142 18.4287 548.376 18.3354 548.55 18.1687L552.328 14.5567C552.941 13.9714 552.526 12.9367 551.678 12.9367Z" fill="#64C1B5"/>
<path d="M548.385 20.9997C548.121 20.8037 547.801 20.6984 547.471 20.6984H545.202C544.385 20.6984 543.71 21.3397 543.671 22.157L543.513 25.4717C543.491 25.9184 543.277 26.3317 542.926 26.6064L530.521 36.305L531.653 37.457H538.965C539.338 37.457 539.698 37.321 539.977 37.0744L549.467 28.7304C549.798 28.4397 549.987 28.021 549.987 27.5797V22.961C549.987 22.4757 549.758 22.0184 549.369 21.729L548.385 20.9997Z" fill="#64C1B5"/>
<path d="M614.603 11.6268L613.414 12.8162C612.861 13.3695 611.963 13.3695 611.41 12.8162L610.221 11.6268C609.667 11.0735 609.667 10.1762 610.221 9.62151L611.635 8.20818L613.201 8.22018L614.603 9.62151C615.157 10.1762 615.157 11.0735 614.603 11.6268ZM620.087 9.62151L614.966 4.50151C614.702 4.23751 614.346 4.08818 613.974 4.08551L610.894 4.06284C610.514 4.06018 610.15 4.20951 609.881 4.47751L604.737 9.62151C604.183 10.1762 604.183 11.0735 604.737 11.6268L611.41 18.2988C611.963 18.8535 612.861 18.8535 613.414 18.2988L620.087 11.6268C620.641 11.0735 620.641 10.1762 620.087 9.62151Z" fill="#64C1B5"/>
<path d="M637.701 6.24334L636.201 4.74334C635.856 4.398 635.387 4.20334 634.897 4.20334H632.441C631.952 4.20334 631.483 4.398 631.137 4.74334L619.532 16.3487C618.896 16.9847 618.812 17.9847 619.331 18.718C619.676 19.206 620.237 19.4967 620.835 19.4967H624.745C625.235 19.4967 625.704 19.302 626.049 18.9567L627.724 17.2807C628.885 16.1193 630.872 16.942 630.872 18.5847V40.25H632.577C633.067 40.25 633.535 40.0567 633.881 39.71L637.701 35.89C638.047 35.5447 638.241 35.0753 638.241 34.586V7.54734C638.241 7.058 638.047 6.58867 637.701 6.24334Z" fill="#64C1B5"/>
</svg>
